<svg xmlns="http://www.w3.org/2000/svg" viewBox="0 0 1200 180" fill="none">
  <defs><linearGradient id="s" x1="0" y1="0" x2="220" y2="180" gradientUnits="userSpaceOnUse"><stop stop-color="#F7E7A8" stop-opacity=".86"/><stop offset=".55" stop-color="#DDF5FF" stop-opacity=".64"/><stop offset="1" stop-color="#7EC8E3" stop-opacity=".18"/></linearGradient><g id="web" stroke="url(#s)" stroke-linecap="round"><path d="M2 2C48 8 116 17 216 2M2 2C9 47 17 113 2 176M2 2C42 44 92 94 164 164M2 2C17 58 38 112 72 176M2 2C58 17 112 38 176 72" stroke-width="1.3"/><path d="M18 5C25 28 22 47 11 67M47 8C57 37 52 63 30 91M82 13C96 49 88 81 58 118M123 19C137 63 126 102 88 149M6 18C28 25 47 22 67 11M8 47C37 57 63 52 91 30M13 82C49 96 81 88 118 58M19 123C63 137 102 126 149 88" stroke-width="1" opacity=".82"/><path d="M26 7C17 21 19 37 35 49C50 61 47 79 30 91M72 13C55 34 58 56 81 70C102 84 98 109 76 126M119 20C96 48 103 76 131 92C158 108 151 139 123 158" stroke="#7EC8E3" stroke-width="1.35" opacity=".6"/><circle cx="2" cy="2" r="3" fill="#F7E7A8" stroke="none"/></g></defs>
  <use href="#web" transform="translate(0 180) scale(1 -1)"/>
  <use href="#web" transform="translate(1200 180) scale(-1 -1)"/>
</svg>
